<svg width="15" height="15" viewBox="0 0 15 15" fill="none" xmlns="http://www.w3.org/2000/svg">
<path d="M11.1667 5.4H11.8333C12.5406 5.4 13.2189 5.695 13.719 6.2201C14.219 6.7452 14.5 7.45739 14.5 8.2C14.5 8.94261 14.219 9.6548 13.719 10.1799C13.2189 10.705 12.5406 11 11.8333 11H11.1667M11.1667 5.4H0.5V11.7C0.5 12.4426 0.780952 13.1548 1.28105 13.6799C1.78115 14.205 2.45942 14.5 3.16667 14.5H8.5C9.20724 14.5 9.88552 14.205 10.3856 13.6799C10.8857 13.1548 11.1667 12.4426 11.1667 11.7V5.4ZM3.16667 0.5V2.6M5.83333 0.5V2.6M8.5 0.5V2.6" stroke="#5B5B5B" stroke-linecap="round" stroke-linejoin="round"/>
</svg>
