<svg width="30" height="30" viewBox="0 0 30 30" fill="none" xmlns="http://www.w3.org/2000/svg">
<rect width="30" height="30" rx="15" fill="#F3F3F3"/>
<path d="M8 10.2H9.55556M9.55556 10.2H22M9.55556 10.2V21.4C9.55556 21.8243 9.71944 22.2313 10.0112 22.5314C10.3029 22.8314 10.6986 23 11.1111 23H18.8889C19.3014 23 19.6971 22.8314 19.9888 22.5314C20.2806 22.2313 20.4444 21.8243 20.4444 21.4V10.2M11.8889 10.2V8.6C11.8889 8.17565 12.0528 7.76869 12.3445 7.46863C12.6362 7.16857 13.0319 7 13.4444 7H16.5556C16.9681 7 17.3638 7.16857 17.6555 7.46863C17.9472 7.76869 18.1111 8.17565 18.1111 8.6V10.2M13.4444 14.2V19M16.5556 14.2V19" stroke="black" stroke-linecap="round" stroke-linejoin="round"/>
</svg>
