<svg width="16" height="4" viewBox="0 0 16 4" fill="none" xmlns="http://www.w3.org/2000/svg">
<path d="M7.75 2.75C8.23325 2.75 8.625 2.30228 8.625 1.75C8.625 1.19772 8.23325 0.75 7.75 0.75C7.26675 0.75 6.875 1.19772 6.875 1.75C6.875 2.30228 7.26675 2.75 7.75 2.75Z" stroke="#5B5B5B" stroke-width="1.5" stroke-linecap="round" stroke-linejoin="round"/>
<path d="M13.875 2.75C14.3582 2.75 14.75 2.30228 14.75 1.75C14.75 1.19772 14.3582 0.75 13.875 0.75C13.3918 0.75 13 1.19772 13 1.75C13 2.30228 13.3918 2.75 13.875 2.75Z" stroke="#5B5B5B" stroke-width="1.5" stroke-linecap="round" stroke-linejoin="round"/>
<path d="M1.625 2.75C2.10825 2.75 2.5 2.30228 2.5 1.75C2.5 1.19772 2.10825 0.75 1.625 0.75C1.14175 0.75 0.75 1.19772 0.75 1.75C0.75 2.30228 1.14175 2.75 1.625 2.75Z" stroke="#5B5B5B" stroke-width="1.5" stroke-linecap="round" stroke-linejoin="round"/>
</svg>
